# Blender v2.78 (sub 0) OBJ File: ''
# www.blender.org
o Cube
v 1.000000 -1.000000 -1.000000
v 1.000000 -1.000000 1.000000
v -1.000000 -1.000000 1.000000
v -1.000000 -1.000000 -1.000000
v 1.000000 1.000000 -0.999999
v 0.999999 1.000000 1.000001
v -1.000000 1.000000 1.000000
v -1.000000 1.000000 -1.000000
v 1.000000 -1.000000 1.000000
v -1.000000 -1.000000 1.000000
v 0.999999 1.000000 1.000001
v -1.000000 1.000000 1.000000
vt 0.9999 0.9999
vt 0.0001 0.9999
vt 0.0001 0.0001
vt 0.9999 0.0001
vt 0.9999 0.9999
vt 0.0001 0.9999
vt 0.0001 0.0001
vt 0.9999 0.0001
vt 0.9999 0.0001
vt 0.0001 0.9999
vt 0.0001 0.0001
vt 0.0001 0.9999
vt 0.9999 0.0001
vt 0.9999 0.9999
vt 0.9999 0.0001
vt 0.0001 0.9999
vt 0.0001 0.0001
vt 0.9999 0.0001
vt 0.9999 0.9999
vt 0.0001 0.9999
vt 0.0001 0.0001
vn 0.0000 -1.0000 0.0000
vn 0.0000 1.0000 0.0000
vn 1.0000 0.0000 0.0000
vn -1.0000 -0.0000 -0.0000
vn 0.0000 0.0000 -1.0000
vn -0.0000 -0.0000 1.0000
s off
f 1/1/1 2/2/1 3/3/1 4/4/1
f 5/5/2 8/6/2 7/7/2 6/8/2
f 1/9/3 5/5/3 6/10/3 2/11/3
f 3/12/4 7/7/4 8/13/4 4/14/4
f 5/15/5 1/1/5 4/16/5 8/17/5
f 9/18/6 11/19/6 12/20/6 10/21/6
