# Blender v2.78 (sub 0) OBJ File: ''
# www.blender.org
o Icosphere_Icosphere.001
v 0.000000 -0.500000 0.000000
v 0.361804 -0.223610 0.262863
v -0.138194 -0.223610 0.425325
v -0.447213 -0.223608 0.000000
v -0.138194 -0.223610 -0.425325
v 0.361804 -0.223610 -0.262863
v 0.138194 0.223610 0.425325
v -0.361804 0.223610 0.262863
v -0.361804 0.223610 -0.262863
v 0.138194 0.223610 -0.425325
v 0.447213 0.223608 0.000000
v 0.000000 0.500000 0.000000
v -0.116411 -0.328760 0.358282
v -0.081228 -0.425327 0.249998
v -0.038803 -0.483975 0.119426
v 0.101590 -0.483975 0.073809
v 0.212661 -0.425327 0.154506
v 0.304773 -0.328759 0.221428
v 0.265970 -0.251151 0.340856
v 0.131434 -0.262869 0.404506
v -0.014820 -0.251151 0.432092
v 0.406365 -0.251150 -0.147619
v 0.425324 -0.262868 0.000000
v 0.406365 -0.251150 0.147619
v 0.101590 -0.483975 -0.073809
v 0.212661 -0.425327 -0.154506
v 0.304773 -0.328759 -0.221428
v -0.376721 -0.328757 0.000000
v -0.262865 -0.425326 0.000000
v -0.125573 -0.483974 0.000000
v -0.241986 -0.251151 0.358282
v -0.344095 -0.262868 0.249998
v -0.415525 -0.251149 0.119427
v -0.116411 -0.328760 -0.358282
v -0.081228 -0.425327 -0.249998
v -0.038803 -0.483975 -0.119426
v -0.415525 -0.251149 -0.119427
v -0.344095 -0.262868 -0.249998
v -0.241986 -0.251151 -0.358282
v -0.014820 -0.251151 -0.432092
v 0.131434 -0.262869 -0.404506
v 0.265970 -0.251151 -0.340856
v 0.478313 0.125575 0.073809
v 0.475529 -0.000000 0.154506
v 0.430349 -0.125575 0.221429
v 0.430349 -0.125575 -0.221429
v 0.475529 0.000000 -0.154506
v 0.478313 0.125575 -0.073809
v 0.077608 0.125576 0.477711
v 0.000000 -0.000000 0.500000
v -0.077608 -0.125576 0.477711
v 0.343579 -0.125576 0.340858
v 0.293893 0.000000 0.404508
v 0.218003 0.125576 0.432094
v -0.430349 0.125575 0.221429
v -0.475529 -0.000000 0.154506
v -0.478313 -0.125575 0.073809
v -0.218003 -0.125576 0.432094
v -0.293893 0.000000 0.404508
v -0.343579 0.125576 0.340858
v -0.343579 0.125576 -0.340858
v -0.293893 -0.000000 -0.404508
v -0.218003 -0.125576 -0.432094
v -0.478313 -0.125575 -0.073809
v -0.475529 0.000000 -0.154506
v -0.430349 0.125575 -0.221429
v 0.218003 0.125576 -0.432094
v 0.293893 -0.000000 -0.404508
v 0.343579 -0.125576 -0.340858
v -0.077608 -0.125576 -0.477711
v 0.000000 0.000000 -0.500000
v 0.077608 0.125576 -0.477711
v 0.415525 0.251149 0.119427
v 0.344095 0.262868 0.249998
v 0.241986 0.251151 0.358282
v 0.014820 0.251151 0.432092
v -0.131434 0.262869 0.404506
v -0.265970 0.251151 0.340856
v -0.406365 0.251150 0.147619
v -0.425324 0.262868 0.000000
v -0.406365 0.251150 -0.147619
v -0.265970 0.251151 -0.340856
v -0.131434 0.262869 -0.404506
v 0.014820 0.251151 -0.432092
v 0.241986 0.251151 -0.358282
v 0.344095 0.262868 -0.249998
v 0.415525 0.251149 -0.119427
v 0.038803 0.483975 0.119426
v 0.081228 0.425327 0.249998
v 0.116411 0.328760 0.358282
v 0.376721 0.328757 0.000000
v 0.262865 0.425326 0.000000
v 0.125573 0.483974 0.000000
v -0.101590 0.483975 0.073809
v -0.212661 0.425327 0.154506
v -0.304773 0.328759 0.221428
v -0.101590 0.483975 -0.073809
v -0.212661 0.425327 -0.154506
v -0.304773 0.328759 -0.221428
v 0.038803 0.483975 -0.119426
v 0.081228 0.425327 -0.249998
v 0.116411 0.328760 -0.358282
v 0.180900 0.447215 -0.131431
v 0.319097 0.361805 -0.131432
v 0.223605 0.361806 -0.262864
v -0.069099 0.447215 -0.212660
v -0.026395 0.361806 -0.344092
v -0.180902 0.361806 -0.293889
v -0.223605 0.447215 0.000000
v -0.335408 0.361805 -0.081229
v -0.335408 0.361805 0.081229
v -0.069099 0.447215 0.212660
v -0.180902 0.361806 0.293889
v -0.026395 0.361806 0.344092
v 0.180900 0.447215 0.131431
v 0.223605 0.361806 0.262864
v 0.319097 0.361805 0.131432
v 0.430902 0.138198 -0.212661
v 0.404510 0.000000 -0.293891
v 0.335410 0.138199 -0.344095
v -0.069099 0.138199 -0.475528
v -0.154508 -0.000000 -0.475528
v -0.223608 0.138199 -0.425324
v -0.473607 0.138198 -0.081229
v -0.500000 0.000000 0.000000
v -0.473606 0.138198 0.081229
v -0.223608 0.138198 0.425324
v -0.154509 -0.000000 0.475528
v -0.069100 0.138198 0.475528
v 0.335410 0.138198 0.344095
v 0.404509 -0.000001 0.293891
v 0.430902 0.138197 0.212662
v 0.154509 -0.000000 -0.475528
v 0.223608 -0.138199 -0.425324
v 0.069100 -0.138199 -0.475527
v -0.404509 -0.000000 -0.293892
v -0.335409 -0.138199 -0.344095
v -0.430902 -0.138198 -0.212662
v -0.404509 0.000000 0.293892
v -0.430902 -0.138198 0.212662
v -0.335410 -0.138199 0.344095
v 0.154509 0.000000 0.475528
v 0.069100 -0.138199 0.475527
v 0.223608 -0.138199 0.425324
v 0.500000 0.000000 0.000000
v 0.473607 -0.138198 0.081229
v 0.473607 -0.138198 -0.081229
v 0.180902 -0.361806 -0.293890
v 0.069098 -0.447215 -0.212661
v 0.026395 -0.361805 -0.344093
v -0.223605 -0.361806 -0.262864
v -0.180901 -0.447214 -0.131431
v -0.319097 -0.361805 -0.131431
v -0.319097 -0.361805 0.131432
v -0.180901 -0.447214 0.131432
v -0.223605 -0.361805 0.262864
v 0.335409 -0.361805 -0.081228
v 0.335409 -0.361805 0.081229
v 0.223605 -0.447214 0.000000
v 0.026395 -0.361806 0.344093
v 0.069099 -0.447215 0.212660
v 0.180902 -0.361805 0.293890
vt 0.5994 0.5136
vt 0.5683 0.4877
vt 0.6067 0.4435
vt 0.4636 0.4015
vt 0.4956 0.4253
vt 0.4577 0.4718
vt 0.6351 0.4944
vt 0.6152 0.5719
vt 0.5717 0.5676
vt 0.4278 0.4241
vt 0.6313 0.2075
vt 0.5766 0.2342
vt 0.5852 0.1522
vt 0.7557 0.4311
vt 0.7407 0.3712
vt 0.7851 0.3797
vt 0.7146 0.7359
vt 0.7250 0.6661
vt 0.7664 0.7147
vt 0.4401 0.7081
vt 0.4822 0.7604
vt 0.3937 0.7589
vt 0.4456 0.3452
vt 0.6875 0.1625
vt 0.7860 0.4606
vt 0.7491 0.7951
vt 0.3935 0.6766
vt 0.3329 0.1979
vt 0.3283 0.2682
vt 0.2838 0.2272
vt 0.0587 0.1670
vt 0.1109 0.1248
vt 0.1006 0.2065
vt 0.0170 0.4717
vt 0.0260 0.4017
vt 0.0532 0.4552
vt 0.1399 0.6967
vt 0.0921 0.6591
vt 0.1477 0.6265
vt 0.3087 0.5044
vt 0.2814 0.5598
vt 0.2768 0.4804
vt 0.2043 0.4171
vt 0.1657 0.4609
vt 0.1733 0.3907
vt 0.2403 0.4492
vt 0.1999 0.4988
vt 0.2408 0.5351
vt 0.1567 0.5437
vt 0.1960 0.5890
vt 0.2438 0.6206
vt 0.1949 0.6708
vt 0.1375 0.4095
vt 0.1243 0.4902
vt 0.1087 0.5792
vt 0.0955 0.4328
vt 0.0767 0.5165
vt 0.0554 0.5993
vt 0.0318 0.5317
vt 0.1577 0.3322
vt 0.1141 0.3491
vt 0.0674 0.3748
vt 0.1344 0.2659
vt 0.0836 0.2862
vt 0.0368 0.3192
vt 0.0481 0.2367
vt 0.2012 0.3371
vt 0.1873 0.2626
vt 0.1602 0.1846
vt 0.2381 0.2777
vt 0.2306 0.1926
vt 0.2043 0.1097
vt 0.2915 0.1452
vt 0.2401 0.3634
vt 0.2832 0.3087
vt 0.2801 0.3988
vt 0.3217 0.3512
vt 0.3147 0.4342
vt 0.3266 0.5609
vt 0.3540 0.6234
vt 0.2984 0.6328
vt 0.3327 0.7072
vt 0.2546 0.7053
vt 0.2939 0.7866
vt 0.1854 0.7526
vt 0.0832 0.7410
vt 0.8393 0.8432
vt 0.8950 0.7724
vt 0.9516 0.8338
vt 0.8190 0.7573
vt 0.0266 0.6797
vt 0.8680 0.6920
vt -0.0004 0.5993
vt 0.8160 0.6709
vt 0.8559 0.6157
vt 0.9001 0.6245
vt 0.8853 0.5644
vt 0.8551 0.5347
vt 0.8944 0.4945
vt 0.8206 0.4977
vt 0.8619 0.4529
vt 0.8235 0.4110
vt 0.9052 0.4120
vt 0.8692 0.3626
vt 0.9165 0.3295
vt 0.8251 0.3244
vt 0.8749 0.2807
vt 0.9271 0.2598
vt 0.8925 0.2004
vt 0.9793 0.2175
vt 0.8008 0.1522
vt 0.9616 0.1348
vt 0.6424 0.0791
vt 0.0932 0.0421
vt 0.3277 0.0685
vt 0.4775 0.1194
vt 0.3792 0.1473
vt 0.3791 0.2295
vt 0.4183 0.2828
vt 0.3673 0.3107
vt 0.4016 0.3678
vt 0.3552 0.4006
vt 0.3862 0.4531
vt 0.3446 0.4820
vt 0.1237 0.8246
vt 0.4474 0.8375
vt 0.9920 0.9173
vt 0.6822 0.8612
vt 0.5703 0.7949
vt 0.6630 0.7786
vt 0.8176 0.5843
vt 0.7720 0.6328
vt 0.7792 0.5425
vt 0.7360 0.5836
vt 0.7467 0.5011
vt 0.8219 0.2380
vt 0.7728 0.3035
vt 0.7452 0.2233
vt 0.7168 0.3038
vt 0.6795 0.2445
vt 0.4395 0.1989
vt 0.5170 0.2003
vt 0.4736 0.2731
vt 0.5281 0.2848
vt 0.4907 0.3460
vt 0.3708 0.5384
vt 0.4172 0.5056
vt 0.4052 0.5954
vt 0.4508 0.5547
vt 0.4444 0.6377
vt 0.4894 0.6784
vt 0.5349 0.6274
vt 0.5430 0.7123
vt 0.5859 0.6418
vt 0.6134 0.7194
vt 0.6388 0.6378
vt 0.6727 0.6968
vt 0.6894 0.6170
vt 0.6588 0.5545
vt 0.7054 0.5283
vt 0.6771 0.4706
vt 0.7194 0.4479
vt 0.6957 0.3868
vt 0.6481 0.4136
vt 0.6633 0.3246
vt 0.6154 0.3606
vt 0.6241 0.2777
vt 0.4896 0.5969
vt 0.4924 0.5069
vt 0.5326 0.5418
vt 0.5322 0.4561
vt 0.5760 0.3158
vt 0.5724 0.4060
vt 0.5314 0.3703
vn 0.0000 -1.0000 0.0000
vn 0.2109 -0.9654 0.1533
vn -0.0806 -0.9654 0.2480
vn 0.7236 -0.4472 0.5257
vn 0.6042 -0.6650 0.4390
vn 0.8152 -0.5038 0.2857
vn -0.2608 -0.9654 0.0000
vn -0.0806 -0.9654 -0.2480
vn 0.2109 -0.9654 -0.1533
vn 0.8650 -0.2430 0.4390
vn -0.2764 -0.4472 0.8506
vn -0.0198 -0.5038 0.8636
vn -0.1502 -0.2430 0.9583
vn -0.8944 -0.4472 0.0000
vn -0.8274 -0.5038 0.2480
vn -0.9578 -0.2430 0.1533
vn -0.2764 -0.4472 -0.8506
vn -0.4915 -0.5038 -0.7103
vn -0.4417 -0.2430 -0.8636
vn 0.7236 -0.4472 -0.5257
vn 0.5236 -0.5038 -0.6870
vn 0.6848 -0.2430 -0.6870
vn 0.6848 -0.2430 0.6870
vn -0.4417 -0.2430 0.8636
vn -0.9578 -0.2430 -0.1533
vn -0.1502 -0.2430 -0.9583
vn 0.8650 -0.2430 -0.4390
vn 0.2764 0.4472 0.8506
vn 0.4915 0.5038 0.7103
vn 0.2308 0.6650 0.7103
vn -0.7236 0.4472 0.5257
vn -0.5236 0.5038 0.6870
vn -0.6042 0.6650 0.4390
vn -0.7236 0.4472 -0.5257
vn -0.8152 0.5038 -0.2857
vn -0.6042 0.6650 -0.4390
vn 0.2764 0.4472 -0.8506
vn 0.0198 0.5038 -0.8636
vn 0.2308 0.6650 -0.7103
vn 0.8944 0.4472 0.0000
vn 0.8274 0.5038 -0.2480
vn 0.7468 0.6650 0.0000
vn 0.2608 0.9654 0.0000
vn 0.0806 0.9654 -0.2480
vn 0.0000 1.0000 0.0000
vn 0.5257 0.8506 0.0000
vn 0.3682 0.8904 -0.2675
vn 0.6317 0.7275 -0.2675
vn 0.1625 0.8506 -0.5000
vn 0.4496 0.7275 -0.5181
vn 0.6882 0.5257 -0.5000
vn 0.4915 0.5038 -0.7103
vn -0.2109 0.9654 -0.1533
vn -0.1406 0.8904 -0.4328
vn -0.0592 0.7275 -0.6835
vn -0.4253 0.8506 -0.3090
vn -0.3538 0.7275 -0.5877
vn -0.2629 0.5257 -0.8090
vn -0.5236 0.5038 -0.6870
vn -0.2109 0.9654 0.1533
vn -0.4551 0.8904 0.0000
vn -0.6683 0.7275 -0.1549
vn -0.4253 0.8506 0.3090
vn -0.6683 0.7275 0.1549
vn -0.8506 0.5257 0.0000
vn -0.8152 0.5038 0.2857
vn 0.0806 0.9654 0.2480
vn -0.1406 0.8904 0.4328
vn -0.3538 0.7275 0.5877
vn 0.1625 0.8506 0.5000
vn -0.0592 0.7275 0.6835
vn -0.2629 0.5257 0.8090
vn 0.0198 0.5038 0.8636
vn 0.3682 0.8904 0.2675
vn 0.4496 0.7275 0.5181
vn 0.6317 0.7275 0.2675
vn 0.6882 0.5257 0.5000
vn 0.8274 0.5038 0.2480
vn 0.9578 0.2430 -0.1533
vn 0.9510 0.0000 -0.3090
vn 0.8593 0.2724 -0.4328
vn 0.8090 0.0089 -0.5878
vn 0.6772 0.2724 -0.6835
vn 0.5878 0.0000 -0.8090
vn 0.4417 0.2430 -0.8636
vn 0.1502 0.2430 -0.9583
vn 0.0000 0.0000 -1.0000
vn -0.1461 0.2724 -0.9510
vn -0.3090 0.0089 -0.9510
vn -0.4407 0.2724 -0.8553
vn -0.5878 0.0000 -0.8090
vn -0.6848 0.2430 -0.6870
vn -0.8650 0.2430 -0.4390
vn -0.9510 0.0000 -0.3090
vn -0.9496 0.2724 -0.1549
vn -0.9999 0.0089 0.0000
vn -0.9496 0.2724 0.1549
vn -0.9510 0.0000 0.3090
vn -0.8650 0.2430 0.4390
vn -0.6848 0.2430 0.6870
vn -0.5878 0.0000 0.8090
vn -0.4407 0.2724 0.8553
vn -0.3090 0.0089 0.9510
vn -0.1461 0.2724 0.9510
vn 0.0000 0.0000 1.0000
vn 0.1502 0.2430 0.9583
vn 0.4417 0.2430 0.8636
vn 0.5878 0.0000 0.8090
vn 0.6772 0.2724 0.6835
vn 0.8090 0.0089 0.5878
vn 0.8593 0.2724 0.4328
vn 0.9510 0.0000 0.3090
vn 0.9578 0.2430 0.1533
vn 0.3090 -0.0089 -0.9510
vn 0.4407 -0.2724 -0.8553
vn 0.1461 -0.2724 -0.9510
vn 0.2629 -0.5257 -0.8090
vn -0.0198 -0.5038 -0.8636
vn -0.8090 -0.0089 -0.5878
vn -0.6772 -0.2724 -0.6835
vn -0.8593 -0.2724 -0.4328
vn -0.6882 -0.5257 -0.5000
vn -0.8274 -0.5038 -0.2480
vn -0.8090 -0.0089 0.5878
vn -0.8593 -0.2724 0.4328
vn -0.6772 -0.2724 0.6835
vn -0.6882 -0.5257 0.5000
vn -0.4915 -0.5038 0.7103
vn 0.3090 -0.0089 0.9510
vn 0.1461 -0.2724 0.9510
vn 0.4407 -0.2724 0.8553
vn 0.2629 -0.5257 0.8090
vn 0.5236 -0.5038 0.6870
vn 0.9999 -0.0089 0.0000
vn 0.9496 -0.2724 0.1549
vn 0.9496 -0.2724 -0.1549
vn 0.8506 -0.5257 0.0000
vn 0.8152 -0.5038 -0.2857
vn 0.6042 -0.6650 -0.4390
vn 0.4253 -0.8506 -0.3090
vn 0.3538 -0.7275 -0.5878
vn 0.1406 -0.8904 -0.4328
vn 0.0592 -0.7275 -0.6835
vn -0.1625 -0.8506 -0.5000
vn -0.2308 -0.6650 -0.7103
vn -0.4496 -0.7275 -0.5181
vn -0.3682 -0.8904 -0.2675
vn -0.6317 -0.7275 -0.2675
vn -0.5257 -0.8506 0.0000
vn -0.7468 -0.6650 0.0000
vn -0.6317 -0.7275 0.2675
vn -0.3682 -0.8904 0.2675
vn -0.4496 -0.7275 0.5181
vn -0.1625 -0.8506 0.5000
vn -0.2308 -0.6650 0.7103
vn 0.6683 -0.7275 -0.1549
vn 0.6683 -0.7275 0.1549
vn 0.4551 -0.8904 0.0000
vn 0.4253 -0.8506 0.3090
vn 0.0592 -0.7275 0.6835
vn 0.1406 -0.8904 0.4328
vn 0.3538 -0.7275 0.5878
s 1
f 1/1/1 16/2/2 15/3/3
f 2/4/4 18/5/5 24/6/6
f 1/1/1 15/3/3 30/7/7
f 1/1/1 30/7/7 36/8/8
f 1/1/1 36/8/8 25/9/9
f 2/4/4 24/6/6 45/10/10
f 3/11/11 21/12/12 51/13/13
f 4/14/14 33/15/15 57/16/16
f 5/17/17 39/18/18 63/19/19
f 6/20/20 42/21/21 69/22/22
f 2/4/4 45/10/10 52/23/23
f 3/11/11 51/13/13 58/24/24
f 4/14/14 57/16/16 64/25/25
f 5/17/17 63/19/19 70/26/26
f 6/20/20 69/22/22 46/27/27
f 7/28/28 75/29/29 90/30/30
f 8/31/31 78/32/32 96/33/33
f 9/34/34 81/35/35 99/36/36
f 10/37/37 84/38/38 102/39/39
f 11/40/40 87/41/41 91/42/42
f 93/43/43 100/44/44 12/45/45
f 92/46/46 103/47/47 93/43/43
f 91/42/42 104/48/48 92/46/46
f 93/43/43 103/47/47 100/44/44
f 103/47/47 101/49/49 100/44/44
f 92/46/46 104/48/48 103/47/47
f 104/48/48 105/50/50 103/47/47
f 103/47/47 105/50/50 101/49/49
f 105/50/50 102/39/39 101/49/49
f 91/42/42 87/41/41 104/48/48
f 87/41/41 86/51/51 104/48/48
f 104/48/48 86/51/51 105/50/50
f 86/51/51 85/52/52 105/50/50
f 105/50/50 85/52/52 102/39/39
f 85/52/52 10/37/37 102/39/39
f 100/44/44 97/53/53 12/45/45
f 101/49/49 106/54/54 100/44/44
f 102/39/39 107/55/55 101/49/49
f 100/44/44 106/54/54 97/53/53
f 106/54/54 98/56/56 97/53/53
f 101/49/49 107/55/55 106/54/54
f 107/55/55 108/57/57 106/54/54
f 106/54/54 108/57/57 98/56/56
f 108/57/57 99/36/36 98/56/56
f 102/39/39 84/38/38 107/55/55
f 84/38/38 83/58/58 107/55/55
f 107/55/55 83/58/58 108/57/57
f 83/58/58 82/59/59 108/57/57
f 108/57/57 82/59/59 99/36/36
f 82/59/59 9/34/34 99/36/36
f 97/53/53 94/60/60 12/45/45
f 98/56/56 109/61/61 97/53/53
f 99/36/36 110/62/62 98/56/56
f 97/53/53 109/61/61 94/60/60
f 109/61/61 95/63/63 94/60/60
f 98/56/56 110/62/62 109/61/61
f 110/62/62 111/64/64 109/61/61
f 109/61/61 111/64/64 95/63/63
f 111/64/64 96/33/33 95/63/63
f 99/36/36 81/35/35 110/62/62
f 81/35/35 80/65/65 110/62/62
f 110/62/62 80/65/65 111/64/64
f 80/65/65 79/66/66 111/64/64
f 111/64/64 79/66/66 96/33/33
f 79/66/66 8/31/31 96/33/33
f 94/60/60 88/67/67 12/45/45
f 95/63/63 112/68/68 94/60/60
f 96/33/33 113/69/69 95/63/63
f 94/60/60 112/68/68 88/67/67
f 112/68/68 89/70/70 88/67/67
f 95/63/63 113/69/69 112/68/68
f 113/69/69 114/71/71 112/68/68
f 112/68/68 114/71/71 89/70/70
f 114/71/71 90/30/30 89/70/70
f 96/33/33 78/32/32 113/69/69
f 78/32/32 77/72/72 113/69/69
f 113/69/69 77/72/72 114/71/71
f 77/72/72 76/73/73 114/71/71
f 114/71/71 76/73/73 90/30/30
f 76/73/73 7/28/28 90/30/30
f 88/67/67 93/43/43 12/45/45
f 89/70/70 115/74/74 88/67/67
f 90/30/30 116/75/75 89/70/70
f 88/67/67 115/74/74 93/43/43
f 115/74/74 92/46/46 93/43/43
f 89/70/70 116/75/75 115/74/74
f 116/75/75 117/76/76 115/74/74
f 115/74/74 117/76/76 92/46/46
f 117/76/76 91/42/42 92/46/46
f 90/30/30 75/29/29 116/75/75
f 75/29/29 74/77/77 116/75/75
f 116/75/75 74/77/77 117/76/76
f 74/77/77 73/78/78 117/76/76
f 117/76/76 73/78/78 91/42/42
f 73/78/78 11/40/40 91/42/42
f 48/79/79 87/41/41 11/40/40
f 47/80/80 118/81/81 48/79/79
f 46/27/27 119/82/82 47/80/80
f 48/79/79 118/81/81 87/41/41
f 118/81/81 86/51/51 87/41/41
f 47/80/80 119/82/82 118/81/81
f 119/82/82 120/83/83 118/81/81
f 118/81/81 120/83/83 86/51/51
f 120/83/83 85/52/52 86/51/51
f 46/27/27 69/22/22 119/82/82
f 69/22/22 68/84/84 119/82/82
f 119/82/82 68/84/84 120/83/83
f 68/84/84 67/85/85 120/83/83
f 120/83/83 67/85/85 85/52/52
f 67/85/85 10/37/37 85/52/52
f 72/86/86 84/38/38 10/37/37
f 71/87/87 121/88/88 72/89/86
f 70/26/26 122/90/89 71/87/87
f 72/86/86 121/91/88 84/38/38
f 121/91/88 83/58/58 84/38/38
f 71/87/87 122/90/89 121/88/88
f 122/90/89 123/92/90 121/88/88
f 121/91/88 123/93/90 83/58/58
f 123/93/90 82/59/59 83/58/58
f 70/26/26 63/19/19 122/90/89
f 63/19/19 62/94/91 122/90/89
f 122/90/89 62/94/91 123/92/90
f 62/94/91 61/95/92 123/92/90
f 123/92/90 61/95/92 82/96/59
f 61/95/92 9/97/34 82/96/59
f 66/98/93 81/99/35 9/97/34
f 65/100/94 124/101/95 66/98/93
f 64/25/25 125/102/96 65/100/94
f 66/98/93 124/101/95 81/99/35
f 124/101/95 80/103/65 81/99/35
f 65/100/94 125/102/96 124/101/95
f 125/102/96 126/104/97 124/101/95
f 124/101/95 126/104/97 80/103/65
f 126/104/97 79/105/66 80/103/65
f 64/25/25 57/16/16 125/102/96
f 57/16/16 56/106/98 125/102/96
f 125/102/96 56/106/98 126/104/97
f 56/106/98 55/107/99 126/104/97
f 126/104/97 55/107/99 79/105/66
f 55/107/99 8/108/31 79/105/66
f 60/109/100 78/110/32 8/108/31
f 59/111/101 127/112/102 60/109/100
f 58/24/24 128/113/103 59/111/101
f 60/109/100 127/112/102 78/110/32
f 127/114/102 77/72/72 78/32/32
f 59/111/101 128/113/103 127/112/102
f 128/113/103 129/115/104 127/112/102
f 127/114/102 129/115/104 77/72/72
f 129/115/104 76/73/73 77/72/72
f 58/24/24 51/13/13 128/113/103
f 51/13/13 50/116/105 128/113/103
f 128/113/103 50/116/105 129/115/104
f 50/116/105 49/117/106 129/115/104
f 129/115/104 49/117/106 76/73/73
f 49/117/106 7/28/28 76/73/73
f 54/118/107 75/29/29 7/28/28
f 53/119/108 130/120/109 54/118/107
f 52/23/23 131/121/110 53/119/108
f 54/118/107 130/120/109 75/29/29
f 130/120/109 74/77/77 75/29/29
f 53/119/108 131/121/110 130/120/109
f 131/121/110 132/122/111 130/120/109
f 130/120/109 132/122/111 74/77/77
f 132/122/111 73/78/78 74/77/77
f 52/23/23 45/10/10 131/121/110
f 45/10/10 44/123/112 131/121/110
f 131/121/110 44/123/112 132/122/111
f 44/123/112 43/124/113 132/122/111
f 132/122/111 43/124/113 73/78/78
f 43/124/113 11/40/40 73/78/78
f 67/85/85 72/86/86 10/37/37
f 68/84/84 133/125/114 67/85/85
f 69/22/22 134/126/115 68/84/84
f 67/85/85 133/125/114 72/86/86
f 133/127/114 71/87/87 72/89/86
f 68/84/84 134/126/115 133/125/114
f 134/126/115 135/128/116 133/127/114
f 133/127/114 135/128/116 71/87/87
f 135/128/116 70/26/26 71/87/87
f 69/22/22 42/21/21 134/126/115
f 42/21/21 41/129/117 134/126/115
f 134/126/115 41/129/117 135/128/116
f 41/129/117 40/130/118 135/128/116
f 135/128/116 40/130/118 70/26/26
f 40/130/118 5/17/17 70/26/26
f 61/95/92 66/98/93 9/97/34
f 62/94/91 136/131/119 61/95/92
f 63/19/19 137/132/120 62/94/91
f 61/95/92 136/131/119 66/98/93
f 136/131/119 65/100/94 66/98/93
f 62/94/91 137/132/120 136/131/119
f 137/132/120 138/133/121 136/131/119
f 136/131/119 138/133/121 65/100/94
f 138/133/121 64/25/25 65/100/94
f 63/19/19 39/18/18 137/132/120
f 39/18/18 38/134/122 137/132/120
f 137/132/120 38/134/122 138/133/121
f 38/134/122 37/135/123 138/133/121
f 138/133/121 37/135/123 64/25/25
f 37/135/123 4/14/14 64/25/25
f 55/107/99 60/109/100 8/108/31
f 56/106/98 139/136/124 55/107/99
f 57/16/16 140/137/125 56/106/98
f 55/107/99 139/136/124 60/109/100
f 139/136/124 59/111/101 60/109/100
f 56/106/98 140/137/125 139/136/124
f 140/137/125 141/138/126 139/136/124
f 139/136/124 141/138/126 59/111/101
f 141/138/126 58/24/24 59/111/101
f 57/16/16 33/15/15 140/137/125
f 33/15/15 32/139/127 140/137/125
f 140/137/125 32/139/127 141/138/126
f 32/139/127 31/140/128 141/138/126
f 141/138/126 31/140/128 58/24/24
f 31/140/128 3/11/11 58/24/24
f 49/117/106 54/118/107 7/28/28
f 50/116/105 142/141/129 49/117/106
f 51/13/13 143/142/130 50/116/105
f 49/117/106 142/141/129 54/118/107
f 142/141/129 53/119/108 54/118/107
f 50/116/105 143/142/130 142/141/129
f 143/142/130 144/143/131 142/141/129
f 142/141/129 144/143/131 53/119/108
f 144/143/131 52/23/23 53/119/108
f 51/13/13 21/12/12 143/142/130
f 21/12/12 20/144/132 143/142/130
f 143/142/130 20/144/132 144/143/131
f 20/144/132 19/145/133 144/143/131
f 144/143/131 19/145/133 52/23/23
f 19/145/133 2/4/4 52/23/23
f 43/124/113 48/79/79 11/40/40
f 44/123/112 145/146/134 43/124/113
f 45/10/10 146/147/135 44/123/112
f 43/124/113 145/146/134 48/79/79
f 145/146/134 47/80/80 48/79/79
f 44/123/112 146/147/135 145/146/134
f 146/147/135 147/148/136 145/146/134
f 145/146/134 147/148/136 47/80/80
f 147/148/136 46/27/27 47/80/80
f 45/10/10 24/6/6 146/147/135
f 24/6/6 23/149/137 146/147/135
f 146/147/135 23/149/137 147/148/136
f 23/149/137 22/150/138 147/148/136
f 147/148/136 22/150/138 46/27/27
f 22/150/138 6/20/20 46/27/27
f 27/151/139 42/21/21 6/20/20
f 26/152/140 148/153/141 27/151/139
f 25/9/9 149/154/142 26/152/140
f 27/151/139 148/153/141 42/21/21
f 148/153/141 41/129/117 42/21/21
f 26/152/140 149/154/142 148/153/141
f 149/154/142 150/155/143 148/153/141
f 148/153/141 150/155/143 41/129/117
f 150/155/143 40/130/118 41/129/117
f 25/9/9 36/8/8 149/154/142
f 36/8/8 35/156/144 149/154/142
f 149/154/142 35/156/144 150/155/143
f 35/156/144 34/157/145 150/155/143
f 150/155/143 34/157/145 40/130/118
f 34/157/145 5/17/17 40/130/118
f 34/157/145 39/18/18 5/17/17
f 35/156/144 151/158/146 34/157/145
f 36/8/8 152/159/147 35/156/144
f 34/157/145 151/158/146 39/18/18
f 151/158/146 38/134/122 39/18/18
f 35/156/144 152/159/147 151/158/146
f 152/159/147 153/160/148 151/158/146
f 151/158/146 153/160/148 38/134/122
f 153/160/148 37/135/123 38/134/122
f 36/8/8 30/7/7 152/159/147
f 30/7/7 29/161/149 152/159/147
f 152/159/147 29/161/149 153/160/148
f 29/161/149 28/162/150 153/160/148
f 153/160/148 28/162/150 37/135/123
f 28/162/150 4/14/14 37/135/123
f 28/162/150 33/15/15 4/14/14
f 29/161/149 154/163/151 28/162/150
f 30/7/7 155/164/152 29/161/149
f 28/162/150 154/163/151 33/15/15
f 154/163/151 32/139/127 33/15/15
f 29/161/149 155/164/152 154/163/151
f 155/164/152 156/165/153 154/163/151
f 154/163/151 156/165/153 32/139/127
f 156/165/153 31/140/128 32/139/127
f 30/7/7 15/3/3 155/164/152
f 15/3/3 14/166/154 155/164/152
f 155/164/152 14/166/154 156/165/153
f 14/166/154 13/167/155 156/165/153
f 156/165/153 13/167/155 31/140/128
f 13/167/155 3/11/11 31/140/128
f 22/150/138 27/151/139 6/20/20
f 23/149/137 157/168/156 22/150/138
f 24/6/6 158/169/157 23/149/137
f 22/150/138 157/168/156 27/151/139
f 157/168/156 26/152/140 27/151/139
f 23/149/137 158/169/157 157/168/156
f 158/169/157 159/170/158 157/168/156
f 157/168/156 159/170/158 26/152/140
f 159/170/158 25/9/9 26/152/140
f 24/6/6 18/5/5 158/169/157
f 18/5/5 17/171/159 158/169/157
f 158/169/157 17/171/159 159/170/158
f 17/171/159 16/2/2 159/170/158
f 159/170/158 16/2/2 25/9/9
f 16/2/2 1/1/1 25/9/9
f 13/167/155 21/12/12 3/11/11
f 14/166/154 160/172/160 13/167/155
f 15/3/3 161/173/161 14/166/154
f 13/167/155 160/172/160 21/12/12
f 160/172/160 20/144/132 21/12/12
f 14/166/154 161/173/161 160/172/160
f 161/173/161 162/174/162 160/172/160
f 160/172/160 162/174/162 20/144/132
f 162/174/162 19/145/133 20/144/132
f 15/3/3 16/2/2 161/173/161
f 16/2/2 17/171/159 161/173/161
f 161/173/161 17/171/159 162/174/162
f 17/171/159 18/5/5 162/174/162
f 162/174/162 18/5/5 19/145/133
f 18/5/5 2/4/4 19/145/133
